# xmcd
#
# Track frame offsets:
#	150
#	12070
#	28617
#	39842
#	55637
#	64502
#	86589
#	95045
#	108654
#	122363
#	135046
#	151076
#	166308
#	182320
#	195175
#	214299
#	224601
#	235504
#	250130
#	267690
#
# Disc length: 3869 seconds
#
# Revision: 1
# Processed by: cddbd v1.5.1PL0 Copyright (c) Steve Scherf et al.
# Submitted via: audiograbber 1.83.01
#
DISCID=f90f1b14
DTITLE=сборник - Only You
DYEAR=1900
DGENRE=
TTITLE0=The Platters - Only You
TTITLE1=L.Armstrong - Go Down Moses
TTITLE2=P.Anka - You Are My Desiny
TTITLE3=Mr.Big - Wild World
TTITLE4=R.Charles - Hit The Road Jack
TTITLE5=C.Evora - Besame Mucho
TTITLE6=E.Presley - Surrender
TTITLE7=S.Adamo - Tombe La Neige
TTITLE8=Engelbert - The Last Waltz
TTITLE9=The Doors - Love Street
TTITLE10=Y.Montand - C'est Si Bon
TTITLE11=F.Sinatra and A.Baker - Witchcraft
TTITLE12=Dalida - Bambino
TTITLE13=The Manhattan Transfer - Java Jive
TTITLE14=J.Iglesias - Mammy Blue
TTITLE15=W.Jackson - Did You Miss Me?
TTITLE16=The Beatles - Cry For A Shadow
TTITLE17=Los Lobos - I Wanna Be Like You
TTITLE18=O.Benton - Bensonhurst Blues
TTITLE19=M.Hopkins - Those Were The Days
EXTD=
EXTT0=
EXTT1=
EXTT2=
EXTT3=
EXTT4=
EXTT5=
EXTT6=
EXTT7=
EXTT8=
EXTT9=
EXTT10=
EXTT11=
EXTT12=
EXTT13=
EXTT14=
EXTT15=
EXTT16=
EXTT17=
EXTT18=
EXTT19=
PLAYORDER=
